<svg width="93" height="58" viewBox="0 0 93 58" fill="none" xmlns="http://www.w3.org/2000/svg">
<path d="M23.3607 53.1867C23.4003 49.9843 23.4797 48.7954 23.6384 48.7954C23.9162 48.7954 24.1543 48.2584 23.9956 47.99C23.936 47.8941 23.7575 47.9708 23.5988 48.1626C23.3408 48.4694 23.321 48.2968 23.3607 46.7627C23.4003 45.5354 23.4797 45.0369 23.6384 45.0944C23.9559 45.2095 24.1741 44.8259 23.9162 44.6725C23.7575 44.5766 23.7773 44.4616 23.936 44.2698C24.0551 44.1164 24.1146 43.9438 24.0352 43.8671C23.9757 43.7904 23.7773 43.9055 23.6186 44.1164C23.3607 44.4424 23.3408 44.4041 23.3805 43.5795C23.4004 42.9659 23.4996 42.659 23.6583 42.659C23.9956 42.659 23.9956 42.3331 23.6781 42.1988C23.4797 42.1029 23.4797 42.0646 23.6781 41.9687C23.9956 41.8153 23.9956 41.5085 23.6583 41.5085C23.44 41.5085 23.3805 40.8373 23.3805 38.2677C23.3607 35.1037 23.3805 35.0078 23.7972 34.9311C24.2138 34.8544 24.2138 34.8352 23.7773 34.701C23.2218 34.5284 23.2019 34.4134 23.7376 33.7614C23.9757 33.4737 24.0948 33.1861 24.0154 33.1094C23.936 33.0327 23.817 33.0902 23.7773 33.2244C23.6384 33.5504 23.321 33.5121 23.321 33.1477C23.321 32.9752 23.4996 32.8026 23.7178 32.745C24.1344 32.63 24.2535 31.9397 23.9162 31.6137C23.6781 31.3836 24.1146 30.4056 24.6106 30.0029C24.8487 29.8111 24.9082 29.8303 24.9082 30.0796C24.9082 30.2713 25.0074 30.348 25.1265 30.2713C25.2455 30.2138 25.2852 29.9454 25.2058 29.6385C25.1265 29.3701 25.1463 29.1975 25.2058 29.2742C25.2852 29.3509 25.5431 29.14 25.7812 28.7948C26.0986 28.3537 26.4558 28.1236 27.0906 27.9702C27.5668 27.8552 28.0033 27.6634 28.043 27.5483C28.0827 27.4141 28.2017 27.3182 28.3207 27.3182C28.4398 27.3182 28.4795 27.4525 28.4199 27.6059C28.3406 27.7593 28.3803 27.9319 28.4993 27.9894C28.5985 28.0661 28.7374 27.9702 28.7969 27.7976C28.8763 27.6251 29.0548 27.5292 29.2334 27.6059C29.3921 27.6634 29.6302 27.6251 29.7889 27.51C30.1064 27.2415 31.4952 27.5675 31.8523 27.9894C31.9912 28.1428 32.2491 28.277 32.4277 28.277C32.6459 28.277 32.5666 28.162 32.2094 27.9319C31.4952 27.5292 31.515 27.3758 32.2491 27.3758C32.6062 27.3758 32.8443 27.4908 32.8443 27.6442C32.8443 27.7785 33.0626 27.9127 33.3403 27.9127C33.6181 27.9319 33.9355 27.9702 34.0347 27.9894C34.1538 28.0086 34.372 28.0469 34.5307 28.0661C34.9474 28.1045 35.6021 29.0824 35.2648 29.1975C34.7887 29.3509 35.245 29.6002 35.8204 29.5043C36.3164 29.4084 36.4156 29.4468 36.5148 29.8686C36.5941 30.1371 36.5941 30.5398 36.5148 30.7507C36.3759 31.1726 36.7132 31.326 36.8719 30.9233C36.9314 30.7507 37.0108 30.7699 37.11 31C37.2687 31.3836 36.8124 31.9205 36.3362 31.9205C35.9791 31.9205 35.9196 32.2273 36.2172 32.3999C36.3362 32.4766 36.3759 32.6108 36.3164 32.7067C36.2568 32.8026 36.3362 32.8218 36.4949 32.7642C36.6735 32.7067 36.8124 32.5341 36.8124 32.3807C36.8124 32.2273 36.8917 32.1122 36.9909 32.1122C37.229 32.1122 37.4076 32.8601 37.1893 32.9752C36.9909 33.1094 37.1893 33.6847 37.4869 33.8764C37.606 33.9531 37.6258 34.0682 37.5465 34.1449C37.4671 34.2216 37.229 34.0874 37.0108 33.8381C36.7925 33.5888 36.5545 33.4354 36.4949 33.5121C36.4354 33.5696 36.614 33.8573 36.8917 34.1641C37.3679 34.6626 37.4076 34.7969 37.2885 35.8132C37.1893 36.6378 37.229 36.9062 37.4076 36.9062C37.7449 36.9062 37.5068 39.169 37.1298 39.5717C36.9116 39.8018 36.8917 39.9744 37.0505 40.2429C37.1893 40.473 37.1893 40.7223 37.0505 41.0099C36.9314 41.2208 36.7925 41.566 36.733 41.7386C36.6735 41.9495 36.5148 42.0262 36.3164 41.9687C36.0981 41.8728 36.0188 41.9687 36.0188 42.3139C36.0188 43.1001 34.8879 43.7904 34.5307 43.2343C34.4712 43.1384 34.2728 43.0426 34.1141 43.0426C33.876 43.0426 33.876 43.1001 34.0744 43.4261C34.2728 43.7329 34.2728 43.8671 33.9951 44.1164C33.6578 44.4616 31.2571 44.8068 31.2571 44.5191C31.2571 44.4232 31.0389 44.4041 30.7809 44.4616C30.4833 44.5383 30.1857 44.4808 30.027 44.3274C29.8881 44.174 29.6699 44.0972 29.531 44.1356C29.412 44.174 29.2532 44.1164 29.1739 44.0205C29.1143 43.9055 29.1937 43.8096 29.3524 43.8096C29.5508 43.8096 29.6699 43.637 29.6699 43.3686C29.6699 42.985 29.7492 42.9275 30.3246 43.0042C30.6817 43.0426 31.4753 42.9083 32.1102 42.6974C32.8245 42.4673 33.2411 42.4098 33.2411 42.544C33.2411 42.659 33.3602 42.6207 33.499 42.4481C33.6379 42.2755 33.9355 42.0454 34.1935 41.9112C34.4315 41.777 34.5903 41.6235 34.5506 41.5277C34.4911 41.451 34.6895 41.0099 34.9672 40.5305C35.3839 39.821 35.4831 39.3608 35.6021 37.4815C35.7013 35.5256 35.7608 35.2763 36.0783 35.3338C36.2568 35.3722 36.4156 35.2955 36.4156 35.1804C36.4156 35.0845 36.2767 34.9886 36.118 34.9886C35.8005 34.9886 35.7807 34.9695 35.7212 34.1257C35.7013 33.8189 35.7807 33.4929 35.8997 33.4162C36.0386 33.3203 35.9989 33.1861 35.7608 33.0327C35.5624 32.8985 35.3839 32.5149 35.3442 32.2081C35.3045 31.9013 35.1855 31.6137 35.0466 31.5753C34.9276 31.537 34.8283 31.3836 34.8283 31.2301C34.8283 31.0767 34.6498 30.8083 34.4315 30.6357C33.9355 30.233 33.9355 30.0029 34.3919 29.9837C34.5704 29.9645 34.253 29.8878 33.6776 29.7919C33.1022 29.6961 32.3682 29.4851 32.0706 29.3317C31.4555 29.0249 29.2532 29.0633 28.8167 29.3892C28.6779 29.4851 28.2811 29.6577 27.9239 29.8111C27.4081 30.0029 27.2295 30.0029 26.9716 29.7919C26.7137 29.6002 26.6343 29.6002 26.4558 29.8303C26.3169 30.0412 26.2375 30.0412 26.1581 29.8686C26.0193 29.5043 25.6423 29.5618 25.7812 29.9262C25.8407 30.0796 25.8209 30.3672 25.7415 30.5398C25.6423 30.7124 25.6225 31.0767 25.7018 31.3452C25.7812 31.6137 25.7018 32.2656 25.5431 32.7834C25.3249 33.5121 25.2653 34.9695 25.2455 38.9773C25.2455 41.9304 25.1661 44.2507 25.0669 44.3082C24.9677 44.3657 24.9677 44.5191 25.0471 44.6342C25.3645 45.056 25.3447 45.919 25.0074 46.245C24.7098 46.5326 24.69 46.5901 24.9677 46.7819C25.2058 46.9545 25.2852 47.5298 25.3249 49.5816C25.3844 52.0553 25.2852 52.7648 24.8884 52.5347C24.7892 52.4772 24.7693 52.5539 24.8289 52.7073C24.8884 52.8799 25.0273 53.0141 25.1265 53.0141C25.2852 53.0141 25.3249 53.436 25.3844 56.274L25.4042 57.5205L24.3527 57.5588L23.3011 57.5972L23.3607 53.1867ZM35.622 41.892C35.622 41.6811 35.5426 41.5085 35.4236 41.5085C35.3244 41.5085 35.2252 41.6811 35.2252 41.892C35.2252 42.1029 35.3244 42.2755 35.4236 42.2755C35.5426 42.2755 35.622 42.1029 35.622 41.892ZM36.3759 39.0156C36.3164 38.6513 36.3759 38.4403 36.5346 38.4403C36.8521 38.4403 37.3084 37.8842 37.1298 37.7308C37.0505 37.6541 36.9314 37.6733 36.8521 37.7883C36.7727 37.9034 36.5545 38.0376 36.3759 38.1143C35.9791 38.2486 35.86 39.5909 36.237 39.5909C36.3759 39.5909 36.4354 39.3608 36.3759 39.0156ZM24.9082 35.3722C24.9082 35.1612 24.8288 34.9886 24.7098 34.9886C24.6106 34.9886 24.5114 35.1612 24.5114 35.3722C24.5114 35.5831 24.6106 35.7557 24.7098 35.7557C24.8288 35.7557 24.9082 35.5831 24.9082 35.3722Z" fill="white"/>
<path d="M82.5839 44.3274C82.068 44.2123 81.8498 44.0589 81.9291 43.8863C81.9887 43.7329 81.949 43.4069 81.8498 43.1384C81.6712 42.7166 81.6117 42.6782 81.2546 42.8892C80.7387 43.2152 80.4014 42.8892 80.4213 42.0838C80.4213 41.7769 80.3419 41.5085 80.2427 41.5085C80.1435 41.5085 80.0642 41.6044 80.0642 41.7002C80.0642 42.1605 79.5483 41.8345 79.211 41.1633C78.5365 39.7826 78.2587 36.8487 78.7745 36.4844C78.9134 36.3885 78.8936 36.2734 78.7349 36.1776C78.3976 35.9666 78.5563 32.4191 78.9729 31.2685C79.3896 30.1179 79.8459 29.3892 80.084 29.5235C80.1634 29.581 80.3816 29.3892 80.5403 29.0824C80.8578 28.4688 81.3736 28.1812 81.5522 28.488C81.6315 28.5839 81.9887 28.3729 82.3656 28.0086C83.0204 27.3758 83.1394 27.3374 84.2504 27.3758C84.8853 27.3949 85.421 27.4716 85.421 27.5483C85.421 27.6251 85.5599 27.7018 85.7186 27.7018C85.8774 27.7018 86.0162 27.6251 86.0162 27.51C86.0162 27.4141 86.1154 27.3182 86.2146 27.3182C86.3337 27.3182 86.413 27.4333 86.413 27.5867C86.413 27.9127 87.167 28.1236 87.2662 27.8168C87.3257 27.6634 87.4646 27.6634 87.782 27.8552C88.0003 27.9702 88.4963 28.0853 88.8534 28.0853C89.5478 28.0853 89.9843 28.3729 89.9843 28.814C89.9843 29.255 90.5001 29.6002 90.9763 29.4851C91.3731 29.3892 91.4128 29.4276 91.3334 29.7728C91.2541 30.0029 91.2937 30.2522 91.3929 30.3097C91.4921 30.3672 91.5715 30.3097 91.5715 30.1755C91.5715 29.7536 91.8294 30.1755 91.889 30.674C91.9485 31.1726 91.6707 31.3452 91.512 30.9233C91.4723 30.7891 91.3533 30.7316 91.2739 30.8083C91.1747 30.9042 91.3533 31.1534 91.631 31.4027C91.9286 31.6328 92.1667 31.9588 92.1667 32.1314C92.1667 32.2848 92.2858 32.5341 92.4246 32.6492C92.6032 32.8409 92.6826 34.3558 92.7222 38.5554L92.7818 44.2123L91.7501 44.1548L90.6985 44.0972L90.7779 42.0838C90.8176 40.9716 90.8573 38.402 90.8374 36.3885C90.8374 34.3558 90.8969 32.6875 90.9961 32.6875C91.0953 32.6875 91.1747 32.6108 91.1747 32.4958C91.1747 32.3999 90.9961 32.304 90.7779 32.304C90.5597 32.304 90.3811 32.1889 90.3811 32.0355C90.3811 31.8821 90.0637 31.4027 89.6867 30.9617C89.3097 30.5206 89.0518 30.0796 89.1113 29.9837C89.1708 29.8878 89.032 29.8111 88.8137 29.8111C88.5955 29.8111 88.3772 29.7344 88.3177 29.6385C88.2582 29.5427 87.6233 29.3701 86.909 29.2358C85.7186 29.0249 85.6194 28.9674 85.7186 28.5839L85.8377 28.1812L85.4607 28.603C85.0242 29.0824 84.0322 29.4084 84.0322 29.0633C84.0322 28.9482 84.1314 28.8523 84.2306 28.8523C84.3497 28.8523 84.429 28.7756 84.429 28.6606C84.429 28.2962 84.0917 28.4688 83.814 28.9674C83.5164 29.5235 82.8616 29.8686 81.9093 29.9645C81.7704 29.9837 81.6514 30.1755 81.6514 30.3864C81.6514 30.5973 81.572 30.7699 81.4728 30.7699C81.3736 30.7699 81.2347 31.0576 81.1554 31.4027C81.0363 31.9397 80.9966 31.9588 80.8776 31.6328C80.6792 31.1726 80.6197 32.3232 80.58 35.9091C80.5602 38.9197 80.6792 40.1278 81.0165 40.262C81.1752 40.3196 81.2546 40.473 81.2149 40.588C81.1554 40.7223 81.3339 40.9907 81.5919 41.1825C81.8895 41.4126 82.0482 41.7386 82.0482 42.1029C82.0482 42.659 82.5244 42.9083 82.6831 42.4289C82.7426 42.2755 83.0204 42.3139 83.6949 42.5632C84.3497 42.7933 84.9845 42.87 85.917 42.8125C86.6313 42.7741 87.2067 42.8125 87.2067 42.8892C87.2067 42.9659 87.3059 43.0426 87.4051 43.0426C87.5241 43.0426 87.6035 42.9083 87.6035 42.7549C87.6035 42.6015 87.7423 42.4673 87.9011 42.4673C88.3971 42.4673 88.2383 42.985 87.7027 43.1193C87.4249 43.196 87.0678 43.4453 86.8892 43.7137C86.7107 43.9822 86.3138 44.2315 85.9567 44.289C84.6671 44.4999 83.318 44.5191 82.5839 44.3274ZM82.0482 29.4468C82.0482 29.2167 81.4728 28.7756 81.3339 28.9098C81.195 29.0249 81.6712 29.6002 81.9093 29.6194C81.9887 29.6194 82.0482 29.5427 82.0482 29.4468ZM83.6354 27.8935C83.6354 27.7976 83.4568 27.7018 83.2188 27.7018C83.0005 27.7018 82.8815 27.7976 82.941 27.8935C83.0005 28.0086 83.1989 28.0853 83.3576 28.0853C83.5164 28.0853 83.6354 28.0086 83.6354 27.8935Z" fill="white"/>
<path d="M42.6652 44.2314C42.5065 44.078 42.566 28.2003 42.7247 27.951C42.8239 27.8168 43.1017 27.7784 43.558 27.8743C44.2326 28.0085 44.2326 28.0277 44.1929 28.8139C44.1532 29.3125 44.2128 29.6193 44.3516 29.6193C44.4905 29.6193 44.55 30.6548 44.5302 33.071C44.4905 35.2571 44.4112 36.446 44.2921 36.2926C44.1731 36.12 44.1731 36.1775 44.2723 36.4268C44.3516 36.6377 44.4707 38.4978 44.4905 40.5688L44.5699 44.3081H43.6572C43.1612 44.3273 42.7247 44.2698 42.6652 44.2314Z" fill="white"/>
<path d="M49.7879 44.1164C49.6887 43.8671 50.76 41.3167 50.9584 41.3167C51.018 41.3167 51.3354 41.5852 51.6925 41.892C52.0497 42.218 52.3671 42.4673 52.4068 42.4673C52.5854 42.4673 52.4465 42.2755 51.7719 41.6235L51.0576 40.9332L51.5537 40.2045C51.8116 39.821 52.0893 39.3799 52.129 39.2265C52.1885 39.0348 52.3473 39.0923 52.7441 39.4758C53.2202 39.936 53.3194 39.9552 53.5774 39.7059C53.7361 39.5525 53.875 39.3608 53.875 39.2841C53.875 39.1882 53.7758 39.2265 53.6369 39.3608C53.2996 39.6868 53.0218 39.6484 53.1607 39.3032C53.2202 39.1115 53.1012 38.9772 52.7639 38.9005L52.2679 38.7855L52.6647 38.3636C52.9028 38.1335 53.0814 37.75 53.0814 37.5199C53.0814 37.3089 53.2599 37.0021 53.498 36.8295C53.7758 36.6378 53.875 36.446 53.7956 36.1776C53.6964 35.9091 53.7758 35.6981 54.0337 35.5256C54.2321 35.3913 54.3908 35.1037 54.4107 34.8736C54.4702 34.1065 55.2836 32.6875 55.6804 32.6875C55.9979 32.6875 56.0574 32.5341 56.0574 31.8438C56.0574 30.8274 56.4542 30.4056 56.9304 30.885C57.1288 31.0576 57.3272 31.1343 57.4065 31.0767C57.4661 31 57.4065 30.8658 57.2478 30.7507C56.9899 30.5973 57.0296 30.5014 57.4264 30.1946L57.8827 29.8111H57.4264C57.1685 29.8111 56.2756 29.7728 55.4622 29.7344C54.6487 29.6961 52.883 29.6385 51.5735 29.6385L49.153 29.6194V28.6797V27.7401L52.2679 27.8168C56.851 27.9319 57.4661 27.9127 57.6645 27.6442C57.724 27.5483 57.6645 26.9155 57.5057 26.2252C57.1883 24.7103 57.3272 18.689 57.7041 18.4589C57.843 18.3822 57.8629 18.248 57.724 18.0754C57.5057 17.8069 57.3669 16.1386 57.4462 14.6621C57.4661 14.1827 57.4661 13.3773 57.4462 12.8403C57.347 9.77218 57.5057 5.55346 57.724 5.05488C57.9422 4.5563 57.0494 4.4796 51.4941 4.49878L46.4349 4.51795L46.3753 3.57833C46.3158 2.6387 46.3158 2.6387 46.8714 2.73458C47.169 2.79211 47.4666 2.88799 47.5261 2.94552C47.5856 3.02222 48.3395 3.02222 49.2125 2.96469C50.1648 2.88799 50.8989 2.92634 51.0576 3.0414C51.2362 3.15645 51.3751 3.15645 51.4545 3.02222C51.633 2.77293 52.6449 2.54282 52.9028 2.69623C53.002 2.75376 54.0138 2.83046 55.1249 2.86881C56.236 2.90717 57.2478 2.94552 57.347 2.96469C57.8033 3.06057 57.8827 2.94552 57.5653 2.60035C57.3669 2.38941 57.3073 2.17848 57.4065 2.12095C57.5256 2.06342 57.5653 1.66073 57.5057 1.21968L57.3867 0.452637L58.3589 0.510164L59.331 0.567693L59.3906 1.77578L59.4501 2.96469L59.9858 2.83046C60.2834 2.75376 61.2159 2.69623 62.069 2.69623C63.8943 2.71541 64.311 2.96469 64.0927 3.90432L63.9737 4.4796L61.6722 4.53713L59.3906 4.59466V14.9881C59.4104 20.9518 59.331 25.439 59.2318 25.4965C59.1326 25.554 59.093 25.7266 59.1525 25.88C59.2318 26.0334 59.3509 26.1293 59.4302 26.0718C59.6683 25.9184 59.3906 26.8197 59.1525 26.9731C59.0334 27.0498 59.0136 27.1648 59.0731 27.2415C59.1525 27.2991 59.3707 27.2224 59.5493 27.0306C59.8271 26.7813 59.9263 26.7621 60.0453 26.9731C60.1445 27.1073 60.1247 27.2415 60.0255 27.2799C59.6882 27.3949 59.8072 27.7018 60.1643 27.7018C60.3429 27.7018 60.7595 27.9319 61.0572 28.2195L61.6127 28.7373L61.0968 29.255C60.6802 29.6769 60.4421 29.7728 60.0056 29.6769C59.6882 29.6194 59.3112 29.6769 59.1326 29.8111C58.9739 29.9262 58.7557 29.9837 58.6366 29.907C58.5374 29.8495 58.339 29.8495 58.2001 29.9262C58.0414 30.0221 58.0811 30.1371 58.3192 30.3097C58.6366 30.5206 58.597 30.674 57.7438 32.2465C57.2478 33.1669 56.7121 34.0298 56.5534 34.1449C56.3947 34.2599 56.3153 34.5092 56.3748 34.7202C56.4344 34.9119 56.3352 35.2571 56.1963 35.468C55.9582 35.7557 55.8392 35.794 55.6209 35.6023C55.2043 35.2763 55.0059 35.5639 55.3828 35.9666C55.6804 36.2926 55.6606 36.4077 55.0852 37.5966C54.6091 38.5937 54.4107 38.843 54.2321 38.6704C53.9345 38.3828 53.4782 38.3636 53.4782 38.6321C53.4782 38.7471 53.5972 38.8238 53.7559 38.8238C54.2916 38.8238 54.3115 39.2265 53.7956 39.8785C53.5178 40.2237 53.2798 40.6647 53.2798 40.8181C53.2798 40.9715 53.1012 41.2784 52.883 41.4701C52.4861 41.8153 52.4861 41.8153 52.9623 42.218C53.379 42.5823 53.5972 42.6015 54.8075 42.5056C55.5416 42.4481 57.0494 42.3906 58.1406 42.3906L60.1247 42.3714L60.1048 43.1001C60.085 43.5028 59.9858 43.9247 59.8469 44.0589C59.5096 44.3849 49.9268 44.4424 49.7879 44.1164ZM51.1172 42.0262C50.8592 41.7769 50.6013 41.9687 50.7997 42.2563C50.8592 42.3714 51.018 42.4098 51.137 42.3522C51.2561 42.2755 51.2561 42.1605 51.1172 42.0262ZM54.6686 36.4077C54.6686 36.3501 54.5297 36.1775 54.371 36.005C53.9742 35.6406 53.7361 35.8132 54.0932 36.2159C54.371 36.5035 54.6686 36.6186 54.6686 36.4077Z" fill="white"/>
<path d="M64.5491 44.1164C64.4697 43.4453 64.5094 43.2919 64.8268 42.9851C65.0252 42.7933 65.184 42.4481 65.184 42.1797C65.184 41.4893 65.3824 41.125 65.7792 41.125C66.0371 41.125 66.1561 40.914 66.2553 40.3388C66.4141 39.3416 66.8307 38.5554 67.783 37.5007C68.3981 36.772 68.4973 36.5803 68.3187 36.2543C68.1402 35.9475 68.1997 35.8132 68.5766 35.5064C68.9139 35.2379 68.9735 35.1229 68.7751 35.0078C68.6163 34.8928 68.5965 34.7969 68.7155 34.7202C68.8346 34.6627 68.9536 34.7202 69.0131 34.8352C69.0727 35.0078 69.152 34.9503 69.2711 34.7202C69.3703 34.4709 69.3306 34.3175 69.1917 34.26C69.0528 34.2216 69.1322 33.9531 69.4298 33.4929C69.6877 33.1094 70.0647 32.4191 70.2631 31.978C70.5012 31.4794 70.7789 31.1535 70.9972 31.1535C71.2154 31.1535 71.3344 31 71.3344 30.6932C71.3344 29.7344 71.0368 29.6577 67.3267 29.6961L63.8943 29.7153L63.9539 30.4056C64.0134 31 63.9539 31.1151 63.5571 31.1918C63.1206 31.2685 61.0969 30.8466 61.5135 30.7699C61.6326 30.7508 61.454 30.6741 61.1365 30.5973C60.4025 30.4439 60.2636 30.0988 60.8588 29.907C61.1167 29.8303 61.3746 29.7728 61.454 29.792C61.5334 29.792 61.5532 29.6961 61.5135 29.5618C61.3746 29.1975 61.7318 28.7756 62.1087 28.9099C62.2873 28.9866 62.3666 29.1208 62.3071 29.2359C62.2476 29.3317 62.3071 29.4276 62.446 29.4276C62.5849 29.4276 62.9023 29.4851 63.1602 29.5427C63.5769 29.6577 63.5967 29.6002 63.5967 28.6989V27.7209H66.0173C67.6838 27.7209 68.4973 27.7977 68.5965 27.9511C68.7155 28.1236 68.7949 28.1236 68.9338 27.9319C69.0727 27.7018 69.1719 27.7018 69.529 27.9319C69.8663 28.1236 69.9853 28.1236 70.1043 27.9511C70.2035 27.7977 70.4813 27.7785 70.9376 27.8552C71.5725 27.9894 72.0487 28.0086 72.1876 27.9127C72.2273 27.8552 73.6954 27.836 74.0526 27.8744C74.3105 27.8935 73.9732 28.9482 73.1598 30.5206C72.7629 31.326 72.6042 31.4986 72.386 31.3069C71.9693 30.9809 71.8305 31.2877 72.2074 31.7096C72.5249 32.0355 72.505 32.0739 72.0289 32.3807C71.7511 32.5533 71.5328 32.8409 71.5328 33.0135C71.5328 33.608 71.0567 34.6051 70.7194 34.701C70.3027 34.8352 70.0647 35.3722 70.4019 35.3722C70.5408 35.3722 70.4813 35.5064 70.2631 35.6598C70.0647 35.794 69.9655 36.005 70.025 36.12C70.1043 36.2351 70.0051 36.5419 69.8266 36.8104C69.5885 37.1747 69.4298 37.2514 69.2512 37.098C69.0727 36.9446 68.9536 36.9446 68.8544 37.098C68.7949 37.1939 68.8544 37.2898 69.0131 37.2898C69.2115 37.2898 69.2909 37.4815 69.2711 37.9226C69.2314 38.3828 69.152 38.517 68.8941 38.4787C68.7155 38.4403 68.5568 38.517 68.5568 38.6321C68.5568 38.728 68.656 38.8239 68.7552 38.8239C69.0727 38.8239 68.4179 39.9169 68.0211 40.0511C67.7632 40.147 67.7434 40.2237 67.9219 40.3388C68.1203 40.4538 68.0211 40.6456 67.5648 41.125C67.1283 41.566 67.0291 41.8153 67.168 41.9879C67.2672 42.103 67.3069 42.2755 67.2275 42.3522C67.1481 42.4098 68.0211 42.4098 69.1322 42.3522C70.7789 42.2372 71.2154 42.2755 71.3543 42.4865C71.4733 42.6974 71.5725 42.6974 71.7709 42.5057C71.9098 42.3714 72.5447 42.2755 73.3383 42.2755C74.8263 42.2755 74.9057 42.3522 74.7271 43.7713L74.6676 44.4041L69.6282 44.3657C66.1165 44.3465 64.5887 44.2698 64.5491 44.1164ZM69.8663 34.0682C69.7075 33.8956 69.4893 33.8189 69.4298 33.8956C69.2314 34.0682 69.7472 34.6243 69.9853 34.4901C70.1044 34.4134 70.0647 34.2408 69.8663 34.0682ZM71.4932 32.1314C71.5527 31.978 71.4733 31.9013 71.3146 31.9588C71.1757 31.9972 71.017 32.1506 70.9773 32.2848C70.9178 32.4382 70.9972 32.5149 71.1559 32.4574C71.2948 32.4191 71.4535 32.2657 71.4932 32.1314ZM73.2391 28.5263C73.0209 28.3154 72.8621 28.6414 73.0209 28.9866C73.1796 29.3126 73.1796 29.3126 73.259 28.9866C73.3185 28.7948 73.2986 28.5839 73.2391 28.5263Z" fill="white"/>
<path d="M28.6778 43.0426C28.5191 42.9467 28.4596 42.8125 28.5191 42.7358C28.7175 42.5632 29.273 42.7933 29.273 43.0426C29.273 43.2727 29.0746 43.2919 28.6778 43.0426Z" fill="white"/>
<path d="M26.0391 31.0383C25.8606 30.8466 26.1185 30.3864 26.4161 30.3864C26.7335 30.3864 26.7335 30.4247 26.5748 30.8466C26.4558 31.1726 26.2574 31.2301 26.0391 31.0383Z" fill="white"/>
<path d="M5.46472 24.0583C5.46472 23.9624 5.22664 23.924 4.92903 23.9816C4.1751 24.1158 2.76644 23.7898 2.8458 23.5022C2.86564 23.3679 2.80612 23.3296 2.68708 23.3871C2.5482 23.4638 2.40932 23.3487 2.3498 23.1378C2.29028 22.9077 2.05219 22.7159 1.81411 22.6776C1.45698 22.6201 1.39746 22.505 1.4173 21.7188C1.4173 21.201 1.35778 20.7983 1.25858 20.7983C1.17922 20.7983 1.09986 20.8942 1.09986 20.9901C1.09986 21.2969 0.564172 21.2202 0.42529 20.8942C0.246727 20.4148 0.524491 20.0313 1.04034 20.0313C1.37762 20.0313 1.49667 20.1272 1.45699 20.3381C1.4173 20.5299 1.51651 20.7025 1.65539 20.7408C1.79427 20.7983 1.89347 20.6641 1.89347 20.434C1.89347 19.8395 2.11171 19.9354 2.76644 20.7983C3.10373 21.2202 3.48069 21.5654 3.61957 21.5654C3.75846 21.5654 3.8775 21.6996 3.8775 21.853C3.8775 22.0448 4.09574 22.1407 4.53223 22.1598C4.86951 22.1598 6.00041 22.179 7.0321 22.1982L8.91693 22.2365L9.41293 21.527C9.6907 21.1243 10.0478 20.8175 10.1669 20.7983C10.3653 20.7983 10.4248 20.3573 10.4049 19.1684C10.3851 18.1137 10.3057 17.5768 10.1867 17.6535C10.0478 17.7302 10.028 17.5768 10.1272 17.1932C10.2264 16.6755 10.2065 16.618 9.7899 16.618C4.71079 16.5604 4.39335 16.5221 3.38149 16.0427C2.8458 15.7934 2.3498 15.5058 2.29028 15.4291C2.23076 15.3523 1.99267 15.2373 1.75459 15.1606C1.23874 15.0072 1.00066 14.4703 1.33794 14.2401C1.53635 14.1251 1.53635 14.0484 1.3181 13.9141C1.15938 13.8183 1.09986 13.6073 1.15938 13.4347C1.23874 13.243 1.17922 13.1279 1.00066 13.1279C0.841936 13.1279 0.703054 13.243 0.703054 13.3772C0.703054 13.4923 0.603853 13.4539 0.484811 13.243C0.226888 12.8211 0.584013 12.4951 1.15938 12.6677C1.39746 12.7444 1.49667 12.6677 1.49667 12.3801C1.49667 11.939 0.802255 11.8048 0.643533 12.2267C0.603852 12.3417 0.504651 12.3992 0.42529 12.3225C0.345929 12.265 0.38561 12.0157 0.504651 11.7856C0.703054 11.4404 0.683214 11.3254 0.484811 11.1912C0.266568 11.0569 0.266567 10.9802 0.44513 10.8652C0.564172 10.7885 0.722894 10.4625 0.802255 10.1556C0.901457 9.7146 0.881616 9.65707 0.722894 9.86801C0.42529 10.2707 0.445131 10.0022 0.762575 9.40779C0.921298 9.13932 1.09986 8.96674 1.15938 9.04344C1.23874 9.10097 1.29826 8.98591 1.29826 8.7558C1.29826 8.14217 2.29028 7.22172 2.94501 7.22172C3.24261 7.22172 3.59973 7.08749 3.73862 6.93408C3.93702 6.66562 4.03622 6.66562 4.35366 6.89573C4.55207 7.02996 4.65127 7.2409 4.57191 7.35595C4.51239 7.47101 4.53223 7.56689 4.65127 7.56689C4.98855 7.56689 5.12744 7.14502 4.84967 6.97243C4.61159 6.81902 4.61159 6.78067 4.84967 6.62726C5.18696 6.41633 5.84169 6.51221 6.13929 6.79985C6.43689 7.08749 6.97258 7.02996 7.25034 6.70397C7.40907 6.51221 7.60747 6.47386 7.82571 6.58891C8.00428 6.68479 8.59948 6.81902 9.17485 6.89573C10.2264 7.02996 10.7224 7.37513 10.8613 8.04629C10.9208 8.31475 11.0795 8.41063 11.4168 8.37228C11.7938 8.3531 11.8334 8.37228 11.6152 8.50651C11.3771 8.6791 11.3771 8.71745 11.6747 8.8325C12.0715 8.96674 12.6667 10.194 12.4882 10.4816C12.4287 10.5775 11.9128 10.6351 11.3374 10.5967L10.3256 10.5392L10.3851 9.88719C10.4446 9.33108 10.4049 9.25438 10.1073 9.36943C9.92878 9.42696 9.5915 9.36943 9.35341 9.2352C8.50028 8.71745 5.66312 8.16135 5.66312 8.50651C5.66312 8.60239 5.54408 8.65992 5.42504 8.64074C5.28616 8.64074 4.71079 8.73663 4.15526 8.89003C3.24261 9.13932 3.10373 9.2352 2.80612 9.96389C2.50852 10.635 2.36964 10.7501 1.93315 10.7309C1.53635 10.6926 1.51651 10.7118 1.85379 10.7693C2.19108 10.8268 2.29028 10.9802 2.29028 11.4213C2.29028 11.7281 2.21092 11.9774 2.09187 11.9774C1.99267 11.9774 1.89347 12.0733 1.89347 12.1691C1.89347 12.2842 2.03235 12.3609 2.19107 12.3609C2.3498 12.3609 2.48868 12.4759 2.48868 12.6102C2.48868 12.7444 2.86564 13.2046 3.34181 13.6457L4.1751 14.4511L6.05993 14.3935C7.09162 14.3552 8.163 14.4127 8.44076 14.5278C8.71852 14.6237 9.23437 14.7387 9.61134 14.7579C10.5041 14.8538 11.1986 15.4866 10.8216 15.8893C10.5637 16.1961 10.6629 16.2728 11.2382 16.2153C11.8731 16.1577 12.2501 16.8864 12.2898 18.2479C12.2898 18.9574 12.389 19.6094 12.4882 19.6861C12.6072 19.7628 12.5874 19.9162 12.4485 20.0888C12.3096 20.2231 12.2699 20.4148 12.3493 20.4723C12.4088 20.549 12.3691 20.7216 12.2501 20.8559C12.1112 21.0093 12.0715 21.1819 12.1509 21.2586C12.2303 21.3161 12.0914 21.5462 11.8533 21.7571C11.6152 21.9872 11.4168 22.2941 11.4168 22.4666C11.4168 22.7159 11.3573 22.7351 11.1787 22.5625C10.8018 22.1982 10.6034 22.2941 10.7422 22.8118C10.8414 23.1953 10.7621 23.3104 10.4049 23.4638C10.147 23.5597 9.67086 23.7323 9.33357 23.8665C8.5598 24.1925 7.92491 24.2308 6.95274 24.0391C6.47657 23.9432 6.07977 23.9624 5.98057 24.0774C5.72264 24.3075 5.46472 24.3075 5.46472 24.0583ZM3.48069 15.2373C3.48069 15.1414 3.36165 15.0455 3.20293 15.0455C3.04421 15.0455 2.8458 15.1414 2.78628 15.2373C2.72676 15.3523 2.8458 15.4291 3.06405 15.4291C3.30213 15.4291 3.48069 15.3523 3.48069 15.2373ZM8.24236 8.3531C8.24236 8.12299 7.66699 7.68194 7.52811 7.81618C7.38923 7.93123 7.86539 8.50651 8.10348 8.52569C8.18284 8.52569 8.24236 8.44898 8.24236 8.3531ZM2.68708 7.96958C2.68708 7.75865 2.60772 7.52854 2.48868 7.47101C2.36964 7.3943 2.29028 7.56689 2.29028 7.83535C2.29028 8.10382 2.38948 8.33393 2.48868 8.33393C2.60772 8.33393 2.68708 8.16134 2.68708 7.96958Z" fill="white"/>
<path d="M21.3369 24.0583C21.3369 23.9624 21.1385 23.8665 20.8806 23.8665C20.4045 23.8665 17.6863 21.4695 17.8451 21.2011C17.9046 21.1244 17.8054 20.6833 17.6268 20.2039C17.2697 19.2451 17.1506 18.2096 17.0316 14.8922C16.9721 12.9554 17.0118 12.476 17.23 12.3034C17.5276 12.0733 17.9443 10.6351 18.0236 9.56122C18.0831 8.94759 18.4006 8.42984 18.9958 7.98879C19.1744 7.85455 19.4521 7.64362 19.591 7.50939C19.7299 7.35598 20.0473 7.20257 20.3053 7.14504C20.6822 7.04916 20.7417 7.08751 20.6425 7.39433C20.5632 7.60527 20.6029 7.75868 20.7219 7.75868C20.8409 7.75868 20.9401 7.70115 20.9401 7.62444C20.9401 7.45186 21.9123 6.99163 22.2694 6.99163C22.4083 6.99163 22.5274 6.91493 22.5274 6.81905C22.5274 6.72317 22.8051 6.55059 23.1226 6.41635C23.7971 6.14789 25.9399 6.26295 26.0589 6.58894C26.0986 6.68482 26.2573 6.72317 26.4161 6.66564C26.5748 6.60812 26.9517 6.83823 27.289 7.1834C27.6263 7.52856 27.9636 7.75868 28.043 7.68197C28.1025 7.60527 28.043 7.47104 27.8842 7.37516C27.4874 7.14504 27.7652 6.93411 28.281 7.08751C28.7771 7.24092 29.0945 7.93126 28.9358 8.50654C28.7969 9.00512 29.035 9.02429 29.3921 8.58324C29.6302 8.25725 29.6699 8.25725 30.0865 8.65995C30.404 8.94759 30.5428 9.33111 30.5428 9.84886C30.5627 10.2707 30.6222 10.6734 30.7214 10.7501C30.8008 10.8268 30.8603 10.7885 30.8603 10.6734C30.8603 10.5392 30.9595 10.4433 31.0785 10.4433C31.1976 10.4433 31.2571 10.5775 31.1976 10.731C31.1182 10.8844 31.1976 11.2487 31.3563 11.5363C31.5944 11.9774 31.6539 13.1855 31.6539 17.922V23.7898L30.7412 23.7515C30.2452 23.7323 29.8087 23.6748 29.7492 23.6172C29.6897 23.5789 29.6302 23.0036 29.6103 22.3708C29.5707 21.3161 29.6103 21.1819 30.0071 20.9709C30.2651 20.8367 30.4635 20.6641 30.4635 20.5683C30.4635 20.319 30.1063 20.3957 30.0071 20.6641C29.7889 21.2394 29.65 20.4915 29.5707 18.3822C29.531 17.1166 29.4715 15.9277 29.4318 15.7167C29.3921 15.4866 29.4715 15.3524 29.6302 15.3907C29.7492 15.4099 29.8683 15.3524 29.8683 15.2373C29.8683 15.1414 29.7889 15.0456 29.6897 15.0456C29.531 15.0456 29.4715 14.6045 29.4119 12.5527C29.4119 12.0733 29.2731 11.5939 29.1143 11.498C28.9755 11.3829 28.7771 10.8077 28.6778 10.2516C28.5985 9.67628 28.5191 9.35029 28.4993 9.54205C28.4794 9.94474 28.2215 9.96392 27.9041 9.59957C27.7255 9.38864 27.7255 9.31193 27.9239 9.21605C28.1025 9.13935 28.1025 9.12017 27.8842 9.13935C27.4279 9.1777 25.682 8.33396 25.801 8.1422C25.8605 8.04632 25.1661 7.98879 24.2733 8.02714C23.2218 8.04632 22.6266 8.1422 22.567 8.2956C22.448 8.64077 22.1901 8.56407 22.071 8.1422C22.0115 7.93126 21.8528 7.75868 21.7338 7.75868C21.5949 7.75868 21.5353 7.89291 21.6147 8.06549C21.7734 8.46819 20.8608 9.33111 20.4441 9.1777C20.2854 9.101 20.1465 9.15852 20.1465 9.29276C20.1465 9.42699 19.9283 9.96392 19.6505 10.4817C19.3728 10.9994 19.1942 11.5172 19.2736 11.6131C19.4521 11.9199 18.8569 12.3801 18.599 12.1308C18.4601 11.9966 18.3014 11.9582 18.2419 12.0349C18.1625 12.1116 18.3014 12.3417 18.5791 12.5527C18.976 12.8978 18.9958 12.9937 18.7577 13.1471C18.4998 13.3005 18.4998 13.3389 18.7577 13.5115C18.9958 13.6649 19.0156 13.7416 18.7776 13.8758C18.5791 13.9909 18.5791 14.1251 18.718 14.4128C18.8371 14.6045 18.8966 15.525 18.8569 16.4646C18.8172 17.385 18.8569 18.3055 18.9561 18.4781C19.7894 20.0121 20.1664 20.8751 20.0672 21.086C20.0275 21.2202 20.2457 21.5654 20.5632 21.8722C21.079 22.3516 21.1981 22.39 21.575 22.1599C21.8528 21.9873 22.0314 21.9681 22.1901 22.1215C22.3091 22.2366 22.6067 22.3324 22.8448 22.3324C23.321 22.3324 23.7178 22.6968 23.2813 22.7351C23.1424 22.7351 23.3011 22.831 23.6583 22.9269C24.313 23.1187 25.305 22.8694 25.305 22.5242C25.305 22.1215 25.8605 22.3516 25.9399 22.8118C25.9994 23.0803 25.9796 23.2912 25.8804 23.2912C25.801 23.2912 25.5828 23.4255 25.4042 23.5981C25.2058 23.809 24.6304 23.9241 23.6583 23.9816C22.8845 24.0199 22.0314 24.0966 21.7933 24.1542C21.5354 24.2117 21.3369 24.1733 21.3369 24.0583ZM30.6619 18.689C30.6619 18.5931 30.523 18.4972 30.3643 18.4972C30.2056 18.4972 30.0667 18.5931 30.0667 18.689C30.0667 18.8041 30.2056 18.8808 30.3643 18.8808C30.523 18.8808 30.6619 18.8041 30.6619 18.689ZM19.5513 8.31478C19.5513 8.2189 19.4124 8.19972 19.2537 8.25725C19.095 8.33396 18.9561 8.50654 18.9561 8.65995C18.9561 8.90924 19.0156 8.90924 19.2537 8.71748C19.4124 8.58324 19.5513 8.41066 19.5513 8.31478ZM27.0906 8.33396C27.0906 8.23808 26.9517 8.1422 26.793 8.1422C26.6343 8.1422 26.4954 8.23808 26.4954 8.33396C26.4954 8.44901 26.6343 8.52572 26.793 8.52572C26.9517 8.52572 27.0906 8.44901 27.0906 8.33396ZM22.9242 7.47104C22.9242 7.31763 22.8448 7.1834 22.7258 7.1834C22.6266 7.1834 22.5274 7.31763 22.5274 7.47104C22.5274 7.62444 22.6266 7.75868 22.7258 7.75868C22.8448 7.75868 22.9242 7.62444 22.9242 7.47104Z" fill="white"/>
<path d="M48.7959 23.8474C48.7562 23.7898 48.7165 21.2011 48.6967 18.0945C48.6768 13.4156 48.6173 12.2842 48.3594 11.4405C48.0022 10.405 46.6134 8.64078 46.296 8.83254C46.1968 8.90924 45.9785 8.75583 45.8 8.5449C45.6016 8.25726 45.3833 8.16138 45.1254 8.23808C44.6492 8.39149 44.6294 7.98879 45.1056 7.64362C45.423 7.39434 45.423 7.39434 45.1056 7.37516C44.9072 7.37516 44.7484 7.47104 44.7484 7.56692C44.7484 7.68198 44.5699 7.75868 44.3715 7.75868C44.1532 7.75868 43.9548 7.85456 43.9151 7.96962C43.8556 8.12302 43.7167 8.12302 43.3993 7.93126C43.1017 7.75868 42.9033 7.7395 42.8041 7.85456C42.4271 8.37231 41.1772 8.73666 41.1772 8.33396C41.1772 8.23808 41.0978 8.1422 40.9788 8.1422C40.8796 8.1422 40.7804 8.31479 40.7804 8.50655C40.7804 8.71748 40.5225 9.06265 40.1852 9.29276C39.8677 9.52287 39.59 9.61875 39.59 9.5037C39.59 9.38864 39.6892 9.29276 39.8082 9.29276C39.9273 9.29276 39.9669 9.15853 39.9074 9.00512C39.8479 8.83254 39.9273 8.65995 40.1058 8.58325C40.3042 8.50655 40.3836 8.33396 40.3042 8.04632C40.2249 7.75868 40.3241 7.50939 40.582 7.27928C40.9589 6.95329 40.9986 6.95329 41.3557 7.33681C41.7327 7.77786 42.1692 7.89291 42.1692 7.56692C42.1692 7.47104 42.0303 7.37516 41.8518 7.37516C41.6732 7.37516 41.574 7.2601 41.6335 7.14505C41.6732 7.01082 41.8518 6.91494 42.0502 6.95329C42.2287 6.99164 42.3676 6.91494 42.3676 6.79988C42.3676 6.704 42.566 6.60812 42.8239 6.6273H43.2604L42.8239 6.83823C42.3081 7.08752 42.2287 7.37516 42.6851 7.37516C43.0422 7.37516 43.558 6.91494 43.558 6.60812C43.558 6.45471 43.7167 6.41636 44.0143 6.49306C44.2524 6.55059 44.6889 6.60812 45.0064 6.60812C45.3436 6.60812 45.542 6.704 45.542 6.89576C45.542 7.04917 45.6412 7.1834 45.7405 7.1834C45.8595 7.1834 45.9389 7.04917 45.9389 6.89576C45.9389 6.45471 46.3555 6.55059 46.4745 7.01082C46.5539 7.27928 46.6333 7.33681 46.7325 7.1834C46.8515 7.01082 46.9904 7.01082 47.288 7.16422C47.903 7.47104 49.5299 9.12018 49.4109 9.29276C49.3514 9.38864 49.4903 9.5037 49.7085 9.5804C50.1053 9.69546 50.2244 10.1365 50.145 11.2104C50.1252 11.5747 50.1648 11.6322 50.3037 11.4021C50.522 11.057 50.522 11.057 50.6013 13.128C50.641 14.0676 50.5815 14.9497 50.4426 15.199C50.3037 15.4866 50.2839 15.6975 50.4228 15.7743C50.5418 15.851 50.641 17.4617 50.6608 19.8779L50.6807 23.8282L49.7879 23.9049C49.2919 23.9432 48.8554 23.9049 48.7959 23.8474ZM46.7325 7.83538C46.7325 7.70115 46.5737 7.64362 46.3357 7.70115C45.8595 7.81621 45.6611 8.0655 45.8397 8.33396C45.9785 8.56407 46.7325 8.1422 46.7325 7.83538Z" fill="white"/>
<path d="M36.1179 15.6209C36.1179 11.0954 36.1576 7.37521 36.2171 7.31768C36.475 7.08757 37.2091 6.99169 37.2091 7.16427C37.2091 7.27933 37.3083 7.37521 37.4075 7.37521C37.5266 7.37521 37.6059 7.24098 37.6059 7.08757C37.6059 6.93416 37.7448 6.79993 37.9035 6.79993C38.1416 6.79993 38.2012 7.08757 38.2012 8.19978C38.2012 8.98599 38.2607 9.67633 38.34 9.73386C38.3996 9.81056 38.717 9.58045 39.0146 9.25446L39.5503 8.62165L39.5305 9.33116C39.5106 9.79138 39.4114 10.0598 39.2527 10.0598C39.1138 10.0598 38.9948 10.2133 38.9948 10.405C38.9948 10.5968 38.9154 10.8269 38.7964 10.9419C38.4392 11.2871 38.2408 13.9334 38.2012 18.6507C38.2012 21.2011 38.1416 23.4064 38.0821 23.5598C38.0226 23.7323 37.6655 23.8282 37.0504 23.8282H36.0981L36.1179 15.6209ZM38.3996 10.5009C38.3996 10.1366 38.34 10.0407 38.2012 10.1749C38.0821 10.29 38.0424 10.5201 38.1218 10.6927C38.3004 11.1529 38.3996 11.0954 38.3996 10.5009Z" fill="white"/>
<path d="M42.4867 23.4447C42.328 23.1954 42.1891 22.7544 42.2089 22.4284C42.2089 22.1216 42.1891 21.7764 42.1692 21.6613C42.0502 21.2586 42.4272 20.7984 43.1017 20.5875C43.4787 20.4724 43.7961 20.4149 43.8358 20.4532C43.8557 20.4724 44.0938 20.8176 44.3517 21.1819C44.6096 21.5463 44.9072 21.8914 44.9866 21.949C45.0659 22.0065 44.9469 22.4667 44.7088 22.9653C44.312 23.809 44.2326 23.8666 43.5184 23.8666C42.9629 23.8666 42.7049 23.7515 42.4867 23.4447Z" fill="white"/>
<path d="M64.5094 23.0611C64.3705 21.8147 64.43 20.6066 64.6086 20.6066C64.7078 20.6066 64.7872 20.4723 64.7872 20.3189C64.7872 20.1655 64.7078 20.0313 64.6086 20.0313C64.5094 20.0313 64.43 17.3083 64.43 13.5114C64.43 6.30126 64.3308 6.78066 65.7792 7.22171L66.5728 7.471V15.6016C66.5529 21.6996 66.4934 23.6747 66.3347 23.5213C66.1958 23.3871 66.0172 23.3679 65.8982 23.4638C65.7792 23.5405 65.4419 23.6747 65.1443 23.7514C64.6483 23.8665 64.6086 23.8281 64.5094 23.0611Z" fill="white"/>
<path d="M20.7616 21.6229C20.4045 21.2586 20.5632 21.1435 20.9997 21.4695C21.1981 21.6037 21.2973 21.7571 21.1981 21.8147C21.1187 21.8722 20.9203 21.7763 20.7616 21.6229Z" fill="white"/>
</svg>